<mxfile host="65bd71144e">
    <diagram id="3wCb8ylf4PY1OCNAGYRz" name="Page-1">
        <mxGraphModel dx="778" dy="212" grid="0" gridSize="10" guides="1" tooltips="1" connect="1" arrows="1" fold="1" page="0" pageScale="1" pageWidth="827" pageHeight="1169" math="0" shadow="0">
            <root>
                <mxCell id="0"/>
                <mxCell id="1" parent="0"/>
                <mxCell id="5" value="0" style="whiteSpace=wrap;html=1;aspect=fixed;fontSize=6;strokeWidth=0.2;" vertex="1" parent="1">
                    <mxGeometry x="39" y="332" width="10" height="10" as="geometry"/>
                </mxCell>
                <mxCell id="6" value="1" style="whiteSpace=wrap;html=1;aspect=fixed;fontSize=6;strokeWidth=0.2;" vertex="1" parent="1">
                    <mxGeometry x="49" y="332" width="10" height="10" as="geometry"/>
                </mxCell>
                <mxCell id="7" value="0" style="whiteSpace=wrap;html=1;aspect=fixed;fontSize=6;strokeWidth=0.2;" vertex="1" parent="1">
                    <mxGeometry x="59" y="332" width="10" height="10" as="geometry"/>
                </mxCell>
                <mxCell id="8" value="0" style="whiteSpace=wrap;html=1;aspect=fixed;fontSize=6;strokeWidth=0.2;" vertex="1" parent="1">
                    <mxGeometry x="69" y="332" width="10" height="10" as="geometry"/>
                </mxCell>
                <mxCell id="9" value="1" style="whiteSpace=wrap;html=1;aspect=fixed;fontSize=6;strokeWidth=0.2;" vertex="1" parent="1">
                    <mxGeometry x="79" y="332" width="10" height="10" as="geometry"/>
                </mxCell>
                <mxCell id="10" value="1" style="whiteSpace=wrap;html=1;aspect=fixed;fontSize=6;strokeWidth=0.2;" vertex="1" parent="1">
                    <mxGeometry x="89" y="332" width="10" height="10" as="geometry"/>
                </mxCell>
                <mxCell id="11" value="1" style="whiteSpace=wrap;html=1;aspect=fixed;fontSize=6;strokeWidth=0.2;" vertex="1" parent="1">
                    <mxGeometry x="109" y="332" width="10" height="10" as="geometry"/>
                </mxCell>
                <mxCell id="12" value="0" style="whiteSpace=wrap;html=1;aspect=fixed;fontSize=6;strokeWidth=0.2;" vertex="1" parent="1">
                    <mxGeometry x="99" y="332" width="10" height="10" as="geometry"/>
                </mxCell>
                <mxCell id="13" value="0" style="whiteSpace=wrap;html=1;aspect=fixed;fontSize=6;strokeWidth=0.2;" vertex="1" parent="1">
                    <mxGeometry x="119" y="332" width="10" height="10" as="geometry"/>
                </mxCell>
                <mxCell id="14" value="1" style="whiteSpace=wrap;html=1;aspect=fixed;fontSize=6;strokeWidth=0.2;" vertex="1" parent="1">
                    <mxGeometry x="129" y="332" width="10" height="10" as="geometry"/>
                </mxCell>
                <mxCell id="15" value="1" style="whiteSpace=wrap;html=1;aspect=fixed;fontSize=6;strokeWidth=0.2;" vertex="1" parent="1">
                    <mxGeometry x="139" y="332" width="10" height="10" as="geometry"/>
                </mxCell>
                <mxCell id="16" value="0" style="whiteSpace=wrap;html=1;aspect=fixed;fontSize=6;strokeWidth=0.2;" vertex="1" parent="1">
                    <mxGeometry x="149" y="332" width="10" height="10" as="geometry"/>
                </mxCell>
                <mxCell id="17" value="0" style="whiteSpace=wrap;html=1;aspect=fixed;fontSize=6;strokeWidth=0.2;" vertex="1" parent="1">
                    <mxGeometry x="159" y="332" width="10" height="10" as="geometry"/>
                </mxCell>
                <mxCell id="18" value="0" style="whiteSpace=wrap;html=1;aspect=fixed;fontSize=6;strokeWidth=0.2;" vertex="1" parent="1">
                    <mxGeometry x="169" y="332" width="10" height="10" as="geometry"/>
                </mxCell>
                <mxCell id="19" value="1" style="whiteSpace=wrap;html=1;aspect=fixed;fontSize=6;strokeWidth=0.2;" vertex="1" parent="1">
                    <mxGeometry x="189" y="332" width="10" height="10" as="geometry"/>
                </mxCell>
                <mxCell id="20" value="0" style="whiteSpace=wrap;html=1;aspect=fixed;fontSize=6;strokeWidth=0.2;" vertex="1" parent="1">
                    <mxGeometry x="179" y="332" width="10" height="10" as="geometry"/>
                </mxCell>
                <mxCell id="22" value="" style="endArrow=none;dashed=1;html=1;dashPattern=1 3;strokeWidth=0.2;fontSize=6;" edge="1" parent="1">
                    <mxGeometry width="50" height="50" relative="1" as="geometry">
                        <mxPoint x="119" y="356" as="sourcePoint"/>
                        <mxPoint x="119" y="318" as="targetPoint"/>
                    </mxGeometry>
                </mxCell>
                <mxCell id="23" value="0" style="whiteSpace=wrap;html=1;aspect=fixed;fontSize=6;strokeWidth=0.2;" vertex="1" parent="1">
                    <mxGeometry x="12" y="386" width="10" height="10" as="geometry"/>
                </mxCell>
                <mxCell id="24" value="1" style="whiteSpace=wrap;html=1;aspect=fixed;fontSize=6;strokeWidth=0.2;" vertex="1" parent="1">
                    <mxGeometry x="22" y="386" width="10" height="10" as="geometry"/>
                </mxCell>
                <mxCell id="25" value="0" style="whiteSpace=wrap;html=1;aspect=fixed;fontSize=6;strokeWidth=0.2;" vertex="1" parent="1">
                    <mxGeometry x="32" y="386" width="10" height="10" as="geometry"/>
                </mxCell>
                <mxCell id="26" value="0" style="whiteSpace=wrap;html=1;aspect=fixed;fontSize=6;strokeWidth=0.2;" vertex="1" parent="1">
                    <mxGeometry x="42" y="386" width="10" height="10" as="geometry"/>
                </mxCell>
                <mxCell id="27" value="1" style="whiteSpace=wrap;html=1;aspect=fixed;fontSize=6;strokeWidth=0.2;" vertex="1" parent="1">
                    <mxGeometry x="52" y="386" width="10" height="10" as="geometry"/>
                </mxCell>
                <mxCell id="28" value="1" style="whiteSpace=wrap;html=1;aspect=fixed;fontSize=6;strokeWidth=0.2;" vertex="1" parent="1">
                    <mxGeometry x="62" y="386" width="10" height="10" as="geometry"/>
                </mxCell>
                <mxCell id="29" value="0" style="whiteSpace=wrap;html=1;aspect=fixed;fontSize=6;strokeWidth=0.2;fillColor=#60a917;fontColor=#ffffff;strokeColor=#2D7600;" vertex="1" parent="1">
                    <mxGeometry x="2" y="386" width="10" height="10" as="geometry"/>
                </mxCell>
                <mxCell id="30" value="0" style="whiteSpace=wrap;html=1;aspect=fixed;fontSize=6;strokeWidth=0.2;fillColor=#60a917;fontColor=#ffffff;strokeColor=#2D7600;" vertex="1" parent="1">
                    <mxGeometry x="-8" y="386" width="10" height="10" as="geometry"/>
                </mxCell>
                <mxCell id="34" value="6个1组" style="edgeStyle=none;html=1;strokeWidth=0.2;fontSize=3;endArrow=none;endFill=0;exitX=0.43;exitY=0.514;exitDx=0;exitDy=0;exitPerimeter=0;" edge="1" parent="1" source="33">
                    <mxGeometry relative="1" as="geometry">
                        <mxPoint x="42.52873563218395" y="385.43678160919546" as="targetPoint"/>
                    </mxGeometry>
                </mxCell>
                <mxCell id="33" value="" style="shape=curlyBracket;whiteSpace=wrap;html=1;rounded=1;labelPosition=left;verticalLabelPosition=middle;align=right;verticalAlign=middle;strokeWidth=0.2;fontSize=3;rotation=-90;" vertex="1" parent="1">
                    <mxGeometry x="64.25" y="317.75" width="10" height="59.5" as="geometry"/>
                </mxCell>
                <mxCell id="74" value="6个1组" style="edgeStyle=none;html=1;entryX=0.5;entryY=0;entryDx=0;entryDy=0;strokeWidth=0.2;fontSize=3;endArrow=none;endFill=0;" edge="1" parent="1" source="35" target="59">
                    <mxGeometry relative="1" as="geometry"/>
                </mxCell>
                <mxCell id="35" value="" style="shape=curlyBracket;whiteSpace=wrap;html=1;rounded=1;labelPosition=left;verticalLabelPosition=middle;align=right;verticalAlign=middle;strokeWidth=0.2;fontSize=3;rotation=-90;" vertex="1" parent="1">
                    <mxGeometry x="123.75" y="317.63" width="10" height="59.5" as="geometry"/>
                </mxCell>
                <mxCell id="36" value="0" style="whiteSpace=wrap;html=1;aspect=fixed;fontSize=6;strokeWidth=0.2;" vertex="1" parent="1">
                    <mxGeometry x="99" y="332" width="10" height="10" as="geometry"/>
                </mxCell>
                <mxCell id="57" value="0" style="whiteSpace=wrap;html=1;aspect=fixed;fontSize=6;strokeWidth=0.2;" vertex="1" parent="1">
                    <mxGeometry x="104" y="386" width="10" height="10" as="geometry"/>
                </mxCell>
                <mxCell id="58" value="1" style="whiteSpace=wrap;html=1;aspect=fixed;fontSize=6;strokeWidth=0.2;" vertex="1" parent="1">
                    <mxGeometry x="114" y="386" width="10" height="10" as="geometry"/>
                </mxCell>
                <mxCell id="59" value="0" style="whiteSpace=wrap;html=1;aspect=fixed;fontSize=6;strokeWidth=0.2;" vertex="1" parent="1">
                    <mxGeometry x="124" y="386" width="10" height="10" as="geometry"/>
                </mxCell>
                <mxCell id="60" value="1" style="whiteSpace=wrap;html=1;aspect=fixed;fontSize=6;strokeWidth=0.2;" vertex="1" parent="1">
                    <mxGeometry x="134" y="386" width="10" height="10" as="geometry"/>
                </mxCell>
                <mxCell id="61" value="1" style="whiteSpace=wrap;html=1;aspect=fixed;fontSize=6;strokeWidth=0.2;" vertex="1" parent="1">
                    <mxGeometry x="144" y="386" width="10" height="10" as="geometry"/>
                </mxCell>
                <mxCell id="62" value="0" style="whiteSpace=wrap;html=1;aspect=fixed;fontSize=6;strokeWidth=0.2;" vertex="1" parent="1">
                    <mxGeometry x="154" y="386" width="10" height="10" as="geometry"/>
                </mxCell>
                <mxCell id="63" value="0" style="whiteSpace=wrap;html=1;aspect=fixed;fontSize=6;strokeWidth=0.2;fillColor=#60a917;fontColor=#ffffff;strokeColor=#2D7600;" vertex="1" parent="1">
                    <mxGeometry x="84" y="386" width="10" height="10" as="geometry"/>
                </mxCell>
                <mxCell id="64" value="0" style="whiteSpace=wrap;html=1;aspect=fixed;fontSize=6;strokeWidth=0.2;fillColor=#60a917;fontColor=#ffffff;strokeColor=#2D7600;" vertex="1" parent="1">
                    <mxGeometry x="94" y="386" width="10" height="10" as="geometry"/>
                </mxCell>
                <mxCell id="65" value="0" style="whiteSpace=wrap;html=1;aspect=fixed;fontSize=6;strokeWidth=0.2;" vertex="1" parent="1">
                    <mxGeometry x="221" y="386" width="10" height="10" as="geometry"/>
                </mxCell>
                <mxCell id="66" value="0" style="whiteSpace=wrap;html=1;aspect=fixed;fontSize=6;strokeWidth=0.2;" vertex="1" parent="1">
                    <mxGeometry x="231" y="386" width="10" height="10" as="geometry"/>
                </mxCell>
                <mxCell id="67" value="1" style="whiteSpace=wrap;html=1;aspect=fixed;fontSize=6;strokeWidth=0.2;" vertex="1" parent="1">
                    <mxGeometry x="251" y="386" width="10" height="10" as="geometry"/>
                </mxCell>
                <mxCell id="68" value="0" style="whiteSpace=wrap;html=1;aspect=fixed;fontSize=6;strokeWidth=0.2;" vertex="1" parent="1">
                    <mxGeometry x="241" y="386" width="10" height="10" as="geometry"/>
                </mxCell>
                <mxCell id="69" value="0" style="whiteSpace=wrap;html=1;aspect=fixed;fontSize=6;strokeWidth=0.2;fillColor=#60a917;fontColor=#ffffff;strokeColor=#2D7600;" vertex="1" parent="1">
                    <mxGeometry x="211" y="386" width="10" height="10" as="geometry"/>
                </mxCell>
                <mxCell id="70" value="0" style="whiteSpace=wrap;html=1;aspect=fixed;fontSize=6;strokeWidth=0.2;fillColor=#60a917;fontColor=#ffffff;strokeColor=#2D7600;" vertex="1" parent="1">
                    <mxGeometry x="201" y="386" width="10" height="10" as="geometry"/>
                </mxCell>
                <mxCell id="71" value="0" style="whiteSpace=wrap;html=1;aspect=fixed;fontSize=6;strokeWidth=0.2;fillColor=#60a917;fontColor=#ffffff;strokeColor=#2D7600;" vertex="1" parent="1">
                    <mxGeometry x="261" y="386" width="10" height="10" as="geometry"/>
                </mxCell>
                <mxCell id="72" value="0" style="whiteSpace=wrap;html=1;aspect=fixed;fontSize=6;strokeWidth=0.2;fillColor=#60a917;fontColor=#ffffff;strokeColor=#2D7600;" vertex="1" parent="1">
                    <mxGeometry x="271" y="386" width="10" height="10" as="geometry"/>
                </mxCell>
                <mxCell id="75" value="6个1组，不够后分别补0" style="edgeStyle=none;html=1;entryX=0;entryY=0;entryDx=0;entryDy=0;strokeWidth=0.2;fontSize=3;endArrow=none;endFill=0;" edge="1" parent="1" source="73" target="68">
                    <mxGeometry relative="1" as="geometry"/>
                </mxCell>
                <mxCell id="73" value="" style="shape=curlyBracket;whiteSpace=wrap;html=1;rounded=1;labelPosition=left;verticalLabelPosition=middle;align=right;verticalAlign=middle;strokeWidth=0.2;fontSize=3;rotation=-90;" vertex="1" parent="1">
                    <mxGeometry x="174.37" y="327.38" width="10" height="40.25" as="geometry"/>
                </mxCell>
                <mxCell id="80" value="&lt;font style=&quot;font-size: 8px;&quot;&gt;M&lt;/font&gt;" style="rounded=0;whiteSpace=wrap;html=1;strokeWidth=0.2;fontSize=8;align=center;verticalAlign=middle;" vertex="1" parent="1">
                    <mxGeometry x="39" y="310.5" width="80" height="10.75" as="geometry"/>
                </mxCell>
                <mxCell id="82" value="&lt;font style=&quot;font-size: 8px;&quot;&gt;a&lt;/font&gt;" style="rounded=0;whiteSpace=wrap;html=1;strokeWidth=0.2;fontSize=8;verticalAlign=middle;" vertex="1" parent="1">
                    <mxGeometry x="119" y="310.62" width="80" height="10.63" as="geometry"/>
                </mxCell>
                <mxCell id="83" value="ASCII" style="text;html=1;align=center;verticalAlign=middle;resizable=0;points=[];autosize=1;strokeColor=none;fillColor=none;fontSize=6;" vertex="1" parent="1">
                    <mxGeometry x="-4" y="316" width="34" height="19" as="geometry"/>
                </mxCell>
                <mxCell id="84" value="Bit pattern" style="text;html=1;align=center;verticalAlign=middle;resizable=0;points=[];autosize=1;strokeColor=none;fillColor=none;fontSize=6;" vertex="1" parent="1">
                    <mxGeometry x="-9.5" y="327.5" width="45" height="19" as="geometry"/>
                </mxCell>
                <mxCell id="85" value="&lt;font style=&quot;font-size: 8px;&quot;&gt;77&lt;/font&gt;" style="rounded=0;whiteSpace=wrap;html=1;strokeWidth=0.2;fontSize=8;align=center;verticalAlign=middle;" vertex="1" parent="1">
                    <mxGeometry x="39" y="321.25" width="80" height="10.75" as="geometry"/>
                </mxCell>
                <mxCell id="86" value="&lt;font style=&quot;font-size: 8px;&quot;&gt;97&lt;/font&gt;" style="rounded=0;whiteSpace=wrap;html=1;strokeWidth=0.2;fontSize=8;verticalAlign=middle;" vertex="1" parent="1">
                    <mxGeometry x="119" y="321.25" width="80" height="10.63" as="geometry"/>
                </mxCell>
            </root>
        </mxGraphModel>
    </diagram>
</mxfile>
